<?xml version="1.0" encoding="UTF-8" standalone="no"?>
<svg
   xmlns:dc="http://purl.org/dc/elements/1.1/"
   xmlns:cc="http://creativecommons.org/ns#"
   xmlns:rdf="http://www.w3.org/1999/02/22-rdf-syntax-ns#"
   xmlns:svg="http://www.w3.org/2000/svg"
   xmlns="http://www.w3.org/2000/svg"
   xmlns:sodipodi="http://sodipodi.sourceforge.net/DTD/sodipodi-0.dtd"
   xmlns:inkscape="http://www.inkscape.org/namespaces/inkscape"
   width="16"
   height="16"
   version="1.1"
   viewBox="0 0 16 16"
   id="svg12"
   sodipodi:docname="icon.svg"
   inkscape:export-filename="/home/dharkael/projects/godot-sprite-slicing/icon_sprite.svg.png"
   inkscape:export-xdpi="877.71429"
   inkscape:export-ydpi="877.71429"
   inkscape:version="0.92.4 (unknown)">
  <metadata
     id="metadata18">
    <rdf:RDF>
      <cc:Work
         rdf:about="">
        <dc:format>image/svg+xml</dc:format>
        <dc:type
           rdf:resource="http://purl.org/dc/dcmitype/StillImage" />
        <dc:title></dc:title>
      </cc:Work>
    </rdf:RDF>
  </metadata>
  <defs
     id="defs16" />
  <sodipodi:namedview
     pagecolor="#ffffff"
     bordercolor="#666666"
     borderopacity="1"
     objecttolerance="10"
     gridtolerance="10"
     guidetolerance="10"
     inkscape:pageopacity="0"
     inkscape:pageshadow="2"
     inkscape:window-width="1920"
     inkscape:window-height="1051"
     id="namedview14"
     showgrid="false"
     inkscape:zoom="13.265625"
     inkscape:cx="3.7568486"
     inkscape:cy="-2.3052784"
     inkscape:window-x="0"
     inkscape:window-y="0"
     inkscape:window-maximized="1"
     inkscape:current-layer="svg12" />
  <path
     d="m 6.0466163,1.0848057 c -2.216,0 -4,1.7840001 -4,4.0000001 v 6.0000002 c 0,2.216 1.784,4 4,4 h 5.9999997 c 0.810345,0 1.560755,-0.243291 2.189453,-0.654297 L 12.947007,10.065274 C 12.442465,10.013356 12.046616,9.6035148 12.046616,9.0848057 V 7.0848058 c 0,-0.01385 0.0073,-0.025353 0.0078,-0.039063 L 10.294664,1.0848057 Z m -1,5.0000001 c 0.554,0 1,0.446 1,1 v 1.9999999 c 0,0.554 -0.446,1.0000003 -1,1.0000003 -0.554,0 -1,-0.4460003 -1,-1.0000003 V 7.0848058 c 0,-0.554 0.446,-1 1,-1 z m 6.1113287,5.1074222 a 1.0001,1.0001 0 0 1 0.716797,1.720703 c -0.74987,0.74987 -1.767625,1.171875 -2.8281257,1.171875 -1.0605,0 -2.078325,-0.421975 -2.828125,-1.171875 a 1.0001,1.0001 0 0 1 0.6972656,-1.716797 1.0001,1.0001 0 0 1 0.7167969,0.302734 c 0.37534,0.37535 0.8832125,0.585938 1.4140625,0.585938 0.53085,0 1.0386627,-0.210588 1.4140627,-0.585938 a 1.0001,1.0001 0 0 1 0.697266,-0.30664 z"
     id="path10-6"
     inkscape:connector-curvature="0"
     style="fill:#a5b7f3;fill-opacity:1" />
</svg>
